<svg width="136" height="50" viewBox="0 0 136 50" fill="none" xmlns="http://www.w3.org/2000/svg">
<path d="M33.266 1.86936L45.5366 23.074C46.2057 24.2306 46.2057 25.6554 45.5366 26.812L33.266 48.0166C32.5968 49.1732 31.36 49.8856 30.0215 49.8856H37.2123C38.5508 49.8856 39.7876 49.1732 40.4568 48.0166L52.7274 26.812C53.3965 25.6554 53.3965 24.2306 52.7274 23.074L40.4568 1.86936C39.7876 0.712787 38.5506 0.000366211 37.2123 0.000366211H30.0215C31.36 0.000366211 32.5968 0.712787 33.266 1.86936Z" fill="#39435A"/>
<path d="M33.266 1.86936L33.8127 2.8142C34.742 2.82776 35.7073 2.90392 36.6924 3.0484C38.6527 3.33612 40.4599 3.86054 42.0038 4.54317L40.4565 1.86936C39.7876 0.712787 38.5508 0.000366211 37.2123 0.000366211H30.0215C31.36 0.000366211 32.5968 0.712787 33.266 1.86936Z" fill="#2C374C"/>
<path d="M19.4237 1.86936L31.6943 23.074C32.3635 24.2306 32.3635 25.6554 31.6943 26.812L19.4237 48.0166C18.7546 49.1732 17.5177 49.8856 16.1792 49.8856H23.37C24.7085 49.8856 25.9454 49.1732 26.6145 48.0166L38.8851 26.812C39.5542 25.6554 39.5542 24.2306 38.8851 23.074L26.6145 1.86936C25.9452 0.712787 24.7084 0.000366211 23.3698 0.000366211H16.1792C17.5176 0.000366211 18.7544 0.712787 19.4237 1.86936Z" fill="#39435A"/>
<path d="M19.9632 48.0162L7.69268 26.8116C7.0235 25.655 7.0235 24.2302 7.69268 23.0736L19.9632 1.86899C20.6324 0.712421 21.8692 0 23.2077 0H16.017C14.6784 0 13.4416 0.712421 12.7724 1.86899L0.501886 23.0736C-0.167295 24.2302 -0.167295 25.655 0.501886 26.8116L12.7724 48.0162C13.4416 49.1728 14.6784 49.8852 16.017 49.8852H23.2077C21.8692 49.8852 20.6324 49.1728 19.9632 48.0162Z" fill="#435F94"/>
<path d="M27.0526 48.0162L14.782 26.8116C14.1129 25.655 14.1129 24.2302 14.782 23.0736L27.0526 1.869C27.7218 0.712788 28.9586 0.000366211 30.2971 0.000366211H23.1063C21.7678 0.000366211 20.531 0.712787 19.8618 1.86936L7.59124 23.074C6.92206 24.2306 6.92206 25.6554 7.59124 26.812L19.8618 48.0166C20.531 49.1732 21.7678 49.8856 23.1063 49.8856H30.2971C28.9586 49.8852 27.7218 49.1728 27.0526 48.0162Z" fill="#377DFF"/>
<path d="M34.2789 48.0162L22.0084 26.8116C21.3392 25.655 21.3392 24.2302 22.0084 23.0736L34.2789 1.869C34.9481 0.712788 36.1849 0.000366211 37.5234 0.000366211H30.3326C28.9941 0.000366211 27.7573 0.712787 27.0881 1.86936L14.8176 23.074C14.1484 24.2306 14.1484 25.6554 14.8176 26.812L27.0881 48.0166C27.7573 49.1732 28.9941 49.8856 30.3326 49.8856H37.5234C36.1849 49.8852 34.9481 49.1728 34.2789 48.0162Z" fill="#37DBFF"/>
<path d="M70.64 9.14L66.32 19.3C66.2267 19.5533 66.08 19.7533 65.88 19.9C65.6933 20.0333 65.4867 20.1 65.26 20.1C64.9 20.1 64.6333 20 64.46 19.8C64.2867 19.6 64.2 19.3533 64.2 19.06C64.2 18.94 64.22 18.8133 64.26 18.68L69.24 6.72C69.3467 6.45333 69.5067 6.24667 69.72 6.1C69.9467 5.95333 70.1867 5.89333 70.44 5.92C70.68 5.92 70.9 5.99333 71.1 6.14C71.3133 6.27333 71.4667 6.46667 71.56 6.72L76.48 18.44C76.5467 18.6133 76.58 18.7733 76.58 18.92C76.58 19.28 76.46 19.5667 76.22 19.78C75.9933 19.9933 75.74 20.1 75.46 20.1C75.22 20.1 75 20.0267 74.8 19.88C74.6133 19.7333 74.4667 19.5333 74.36 19.28L70.06 9.26L70.64 9.14ZM66.94 16.86L68.04 14.56H73.44L73.82 16.86H66.94ZM82.7134 9.1C83.2734 9.1 83.7868 9.18667 84.2534 9.36C84.7201 9.53333 85.1201 9.75333 85.4534 10.02C85.8001 10.2867 86.0668 10.56 86.2534 10.84C86.4534 11.1067 86.5534 11.3333 86.5534 11.52L86.0334 11.78V10.32C86.0334 9.97333 86.1468 9.68667 86.3734 9.46C86.6001 9.22 86.8868 9.1 87.2334 9.1C87.5801 9.1 87.8668 9.21333 88.0934 9.44C88.3201 9.66667 88.4334 9.96 88.4334 10.32V19.22C88.4334 20.38 88.1801 21.3067 87.6734 22C87.1801 22.7067 86.5268 23.2133 85.7134 23.52C84.9001 23.84 84.0268 24 83.0934 24C82.8268 24 82.4801 23.9667 82.0534 23.9C81.6268 23.8333 81.2201 23.7533 80.8334 23.66C80.4468 23.5667 80.1534 23.48 79.9534 23.4C79.5534 23.2267 79.2734 23.0067 79.1134 22.74C78.9668 22.4867 78.9401 22.2133 79.0334 21.92C79.1534 21.5333 79.3468 21.2667 79.6134 21.12C79.8801 20.9867 80.1601 20.9733 80.4534 21.08C80.5868 21.12 80.8068 21.2 81.1134 21.32C81.4201 21.44 81.7534 21.5467 82.1134 21.64C82.4868 21.7467 82.8134 21.8 83.0934 21.8C84.0934 21.8 84.8334 21.6 85.3134 21.2C85.7934 20.8 86.0334 20.2467 86.0334 19.54V17.8L86.2734 17.98C86.2734 18.1533 86.1801 18.3667 85.9934 18.62C85.8201 18.86 85.5734 19.1 85.2534 19.34C84.9468 19.58 84.5801 19.7867 84.1534 19.96C83.7268 20.12 83.2734 20.2 82.7934 20.2C81.8468 20.2 80.9934 19.9667 80.2334 19.5C79.4734 19.02 78.8734 18.3667 78.4334 17.54C77.9934 16.7 77.7734 15.74 77.7734 14.66C77.7734 13.5667 77.9934 12.6067 78.4334 11.78C78.8734 10.94 79.4668 10.2867 80.2134 9.82C80.9601 9.34 81.7934 9.1 82.7134 9.1ZM83.0934 11.3C82.4934 11.3 81.9668 11.4467 81.5134 11.74C81.0601 12.0333 80.7068 12.4333 80.4534 12.94C80.2001 13.4467 80.0734 14.02 80.0734 14.66C80.0734 15.2867 80.2001 15.8533 80.4534 16.36C80.7068 16.8667 81.0601 17.2667 81.5134 17.56C81.9668 17.8533 82.4934 18 83.0934 18C83.7068 18 84.2401 17.8533 84.6934 17.56C85.1468 17.2667 85.5001 16.8667 85.7534 16.36C86.0068 15.8533 86.1334 15.2867 86.1334 14.66C86.1334 14.02 86.0068 13.4467 85.7534 12.94C85.5001 12.4333 85.1468 12.0333 84.6934 11.74C84.2401 11.4467 83.7068 11.3 83.0934 11.3ZM95.8767 20.2C94.7434 20.2 93.7567 19.9667 92.9167 19.5C92.0901 19.02 91.4501 18.3733 90.9967 17.56C90.5567 16.7467 90.3367 15.8267 90.3367 14.8C90.3367 13.6 90.5767 12.58 91.0567 11.74C91.5501 10.8867 92.1901 10.2333 92.9767 9.78C93.7634 9.32667 94.5967 9.1 95.4767 9.1C96.1567 9.1 96.7967 9.24 97.3967 9.52C98.0101 9.8 98.5501 10.1867 99.0167 10.68C99.4834 11.16 99.8501 11.72 100.117 12.36C100.397 13 100.537 13.68 100.537 14.4C100.523 14.72 100.397 14.98 100.157 15.18C99.9167 15.38 99.6367 15.48 99.3167 15.48H91.6767L91.0767 13.48H98.4167L97.9767 13.88V13.34C97.9501 12.9533 97.8101 12.6067 97.5567 12.3C97.3167 11.9933 97.0101 11.7533 96.6367 11.58C96.2767 11.3933 95.8901 11.3 95.4767 11.3C95.0767 11.3 94.7034 11.3533 94.3567 11.46C94.0101 11.5667 93.7101 11.7467 93.4567 12C93.2034 12.2533 93.0034 12.5933 92.8567 13.02C92.7101 13.4467 92.6367 13.9867 92.6367 14.64C92.6367 15.36 92.7834 15.9733 93.0767 16.48C93.3834 16.9733 93.7701 17.3533 94.2367 17.62C94.7167 17.8733 95.2234 18 95.7567 18C96.2501 18 96.6434 17.96 96.9367 17.88C97.2301 17.8 97.4634 17.7067 97.6367 17.6C97.8234 17.48 97.9901 17.38 98.1367 17.3C98.3767 17.18 98.6034 17.12 98.8167 17.12C99.1101 17.12 99.3501 17.22 99.5367 17.42C99.7367 17.62 99.8367 17.8533 99.8367 18.12C99.8367 18.48 99.6501 18.8067 99.2767 19.1C98.9301 19.3933 98.4434 19.6533 97.8167 19.88C97.1901 20.0933 96.5434 20.2 95.8767 20.2ZM108.554 9.1C109.54 9.1 110.287 9.30667 110.794 9.72C111.314 10.1333 111.667 10.6867 111.854 11.38C112.054 12.06 112.154 12.82 112.154 13.66V18.78C112.154 19.1267 112.04 19.42 111.814 19.66C111.587 19.8867 111.3 20 110.954 20C110.607 20 110.32 19.8867 110.094 19.66C109.867 19.42 109.754 19.1267 109.754 18.78V13.66C109.754 13.22 109.694 12.8267 109.574 12.48C109.467 12.12 109.267 11.8333 108.974 11.62C108.68 11.4067 108.26 11.3 107.714 11.3C107.18 11.3 106.727 11.4067 106.354 11.62C105.994 11.8333 105.714 12.12 105.514 12.48C105.327 12.8267 105.234 13.22 105.234 13.66V18.78C105.234 19.1267 105.12 19.42 104.894 19.66C104.667 19.8867 104.38 20 104.034 20C103.687 20 103.4 19.8867 103.174 19.66C102.947 19.42 102.834 19.1267 102.834 18.78V10.52C102.834 10.1733 102.947 9.88667 103.174 9.66C103.4 9.42 103.687 9.3 104.034 9.3C104.38 9.3 104.667 9.42 104.894 9.66C105.12 9.88667 105.234 10.1733 105.234 10.52V11.38L104.934 11.32C105.054 11.0933 105.227 10.8533 105.454 10.6C105.68 10.3333 105.947 10.0867 106.254 9.86C106.56 9.63333 106.907 9.45333 107.294 9.32C107.68 9.17333 108.1 9.1 108.554 9.1ZM119.708 9.1C120.468 9.1 121.128 9.18 121.688 9.34C122.261 9.5 122.701 9.72667 123.008 10.02C123.328 10.3 123.488 10.64 123.488 11.04C123.488 11.3067 123.408 11.56 123.248 11.8C123.088 12.0267 122.854 12.14 122.548 12.14C122.334 12.14 122.154 12.1133 122.008 12.06C121.874 11.9933 121.754 11.9133 121.648 11.82C121.541 11.7267 121.414 11.64 121.268 11.56C121.134 11.48 120.928 11.42 120.648 11.38C120.381 11.3267 120.181 11.3 120.048 11.3C119.368 11.3 118.788 11.4467 118.308 11.74C117.841 12.0333 117.481 12.4333 117.228 12.94C116.974 13.4333 116.848 14.0067 116.848 14.66C116.848 15.3 116.974 15.8733 117.228 16.38C117.494 16.8733 117.854 17.2667 118.308 17.56C118.774 17.8533 119.308 18 119.908 18C120.241 18 120.528 17.98 120.768 17.94C121.008 17.9 121.208 17.84 121.368 17.76C121.554 17.6533 121.721 17.54 121.868 17.42C122.014 17.3 122.234 17.24 122.528 17.24C122.874 17.24 123.141 17.3533 123.328 17.58C123.514 17.7933 123.608 18.06 123.608 18.38C123.608 18.7133 123.421 19.02 123.048 19.3C122.674 19.5667 122.181 19.7867 121.568 19.96C120.968 20.12 120.314 20.2 119.608 20.2C118.554 20.2 117.641 19.96 116.868 19.48C116.094 18.9867 115.494 18.32 115.068 17.48C114.654 16.64 114.448 15.7 114.448 14.66C114.448 13.5667 114.668 12.6067 115.108 11.78C115.561 10.94 116.181 10.2867 116.968 9.82C117.768 9.34 118.681 9.1 119.708 9.1ZM133.478 9.3C133.825 9.3 134.112 9.42 134.338 9.66C134.565 9.88667 134.678 10.1733 134.678 10.52V19.02C134.678 20.2467 134.445 21.22 133.978 21.94C133.525 22.6733 132.912 23.2 132.138 23.52C131.365 23.84 130.498 24 129.538 24C129.112 24 128.658 23.9667 128.178 23.9C127.698 23.8333 127.305 23.7333 126.998 23.6C126.598 23.4267 126.318 23.2067 126.158 22.94C126.012 22.6867 125.985 22.4133 126.078 22.12C126.198 21.7333 126.392 21.4667 126.658 21.32C126.925 21.1867 127.205 21.1733 127.498 21.28C127.712 21.3467 127.992 21.4467 128.338 21.58C128.685 21.7267 129.085 21.8 129.538 21.8C130.152 21.8 130.658 21.7133 131.058 21.54C131.472 21.38 131.778 21.1 131.978 20.7C132.192 20.3133 132.298 19.78 132.298 19.1V17.76L132.718 18.24C132.492 18.68 132.205 19.0467 131.858 19.34C131.525 19.62 131.125 19.8333 130.658 19.98C130.192 20.1267 129.658 20.2 129.058 20.2C128.352 20.2 127.732 20.04 127.198 19.72C126.678 19.3867 126.272 18.9333 125.978 18.36C125.685 17.7733 125.538 17.1067 125.538 16.36V10.52C125.538 10.1733 125.652 9.88667 125.878 9.66C126.105 9.42 126.392 9.3 126.738 9.3C127.085 9.3 127.372 9.42 127.598 9.66C127.825 9.88667 127.938 10.1733 127.938 10.52V15.64C127.938 16.5067 128.125 17.12 128.498 17.48C128.885 17.8267 129.418 18 130.098 18C130.565 18 130.958 17.9133 131.278 17.74C131.598 17.5533 131.845 17.2867 132.018 16.94C132.192 16.58 132.278 16.1467 132.278 15.64V10.52C132.278 10.1733 132.392 9.88667 132.618 9.66C132.845 9.42 133.132 9.3 133.478 9.3Z" fill="#1D1D1D"/>
<path d="M73.68 33.5679C73.808 33.6532 73.8827 33.7652 73.904 33.9039C73.9253 34.0319 73.8933 34.1599 73.808 34.2879C73.7333 34.3839 73.6373 34.4372 73.52 34.4479C73.4027 34.4586 73.2907 34.4372 73.184 34.3839C72.7787 34.1172 72.3413 33.9092 71.872 33.7599C71.4133 33.6106 70.9173 33.5359 70.384 33.5359C69.7333 33.5359 69.1253 33.6532 68.56 33.8879C68.0053 34.1119 67.52 34.4426 67.104 34.8799C66.688 35.3066 66.3627 35.8132 66.128 36.3999C65.904 36.9866 65.792 37.6319 65.792 38.3359C65.792 39.0612 65.9093 39.7226 66.144 40.3199C66.3787 40.9066 66.704 41.4132 67.12 41.8399C67.5467 42.2666 68.0373 42.5919 68.592 42.8159C69.1467 43.0399 69.744 43.1519 70.384 43.1519C70.9067 43.1519 71.3973 43.0772 71.856 42.9279C72.3253 42.7786 72.7627 42.5759 73.168 42.3199C73.2747 42.2559 73.3867 42.2346 73.504 42.2559C73.632 42.2666 73.7333 42.3252 73.808 42.4319C73.904 42.5492 73.936 42.6772 73.904 42.8159C73.8827 42.9439 73.8133 43.0452 73.696 43.1199C73.4293 43.2906 73.1147 43.4506 72.752 43.5999C72.3893 43.7492 72.0053 43.8666 71.6 43.9519C71.1947 44.0479 70.7893 44.0959 70.384 44.0959C69.616 44.0959 68.896 43.9572 68.224 43.6799C67.552 43.4026 66.9547 43.0132 66.432 42.5119C65.9093 41.9999 65.4987 41.3919 65.2 40.6879C64.912 39.9839 64.768 39.1999 64.768 38.3359C64.768 37.5039 64.912 36.7412 65.2 36.0479C65.488 35.3439 65.888 34.7359 66.4 34.2239C66.912 33.7119 67.5093 33.3119 68.192 33.0239C68.8747 32.7359 69.6053 32.5919 70.384 32.5919C70.992 32.5919 71.5787 32.6772 72.144 32.8479C72.7093 33.0186 73.2213 33.2586 73.68 33.5679ZM76.3571 43.9359C76.2078 43.9359 76.0905 43.8879 76.0051 43.7919C75.9198 43.6959 75.8771 43.5839 75.8771 43.4559V36.2879C75.8771 36.1599 75.9198 36.0479 76.0051 35.9519C76.1011 35.8559 76.2185 35.8079 76.3571 35.8079C76.4958 35.8079 76.6078 35.8559 76.6931 35.9519C76.7891 36.0479 76.8371 36.1599 76.8371 36.2879V38.6879L76.5971 38.7359C76.6291 38.3626 76.7198 37.9946 76.8691 37.6319C77.0291 37.2586 77.2425 36.9172 77.5091 36.6079C77.7758 36.2986 78.0905 36.0479 78.4531 35.8559C78.8265 35.6639 79.2425 35.5679 79.7011 35.5679C79.8931 35.5679 80.0798 35.6106 80.2611 35.6959C80.4425 35.7706 80.5331 35.8986 80.5331 36.0799C80.5331 36.2399 80.4905 36.3626 80.4051 36.4479C80.3198 36.5332 80.2185 36.5759 80.1011 36.5759C80.0051 36.5759 79.8985 36.5492 79.7811 36.4959C79.6745 36.4426 79.5305 36.4159 79.3491 36.4159C79.0505 36.4159 78.7518 36.5066 78.4531 36.6879C78.1545 36.8586 77.8825 37.0932 77.6371 37.3919C77.3918 37.6906 77.1945 38.0266 77.0451 38.3999C76.9065 38.7626 76.8371 39.1306 76.8371 39.5039V43.4559C76.8371 43.5839 76.7891 43.6959 76.6931 43.7919C76.5971 43.8879 76.4851 43.9359 76.3571 43.9359ZM85.53 44.0959C84.7087 44.0959 83.9833 43.9199 83.354 43.5679C82.7247 43.2159 82.234 42.7252 81.882 42.0959C81.53 41.4666 81.354 40.7306 81.354 39.8879C81.354 38.9812 81.53 38.2079 81.882 37.5679C82.2447 36.9279 82.7087 36.4372 83.274 36.0959C83.85 35.7439 84.458 35.5679 85.098 35.5679C85.5673 35.5679 86.0207 35.6532 86.458 35.8239C86.906 35.9839 87.3007 36.2292 87.642 36.5599C87.994 36.8799 88.2713 37.2746 88.474 37.7439C88.6873 38.2132 88.8047 38.7572 88.826 39.3759C88.8153 39.5039 88.762 39.6159 88.666 39.7119C88.57 39.7972 88.458 39.8399 88.33 39.8399H81.914L81.722 38.9759H88.026L87.818 39.1679V38.8479C87.7753 38.3466 87.6153 37.9199 87.338 37.5679C87.0607 37.2159 86.7247 36.9492 86.33 36.7679C85.9353 36.5866 85.5247 36.4959 85.098 36.4959C84.778 36.4959 84.4473 36.5599 84.106 36.6879C83.7753 36.8159 83.4713 37.0186 83.194 37.2959C82.9273 37.5626 82.7087 37.9092 82.538 38.3359C82.3673 38.7519 82.282 39.2479 82.282 39.8239C82.282 40.4532 82.41 41.0239 82.666 41.5359C82.922 42.0479 83.29 42.4532 83.77 42.7519C84.2607 43.0506 84.842 43.1999 85.514 43.1999C85.8873 43.1999 86.2233 43.1466 86.522 43.0399C86.8207 42.9332 87.082 42.7946 87.306 42.6239C87.53 42.4426 87.7167 42.2559 87.866 42.0639C87.9833 41.9679 88.1007 41.9199 88.218 41.9199C88.3247 41.9199 88.4153 41.9626 88.49 42.0479C88.5753 42.1332 88.618 42.2292 88.618 42.3359C88.618 42.4639 88.5647 42.5759 88.458 42.6719C88.138 43.0559 87.722 43.3919 87.21 43.6799C86.698 43.9572 86.138 44.0959 85.53 44.0959ZM97.8074 35.7599C97.946 35.7599 98.058 35.8079 98.1434 35.9039C98.2394 35.9999 98.2874 36.1172 98.2874 36.2559V43.4559C98.2874 43.5839 98.2394 43.6959 98.1434 43.7919C98.0474 43.8879 97.9354 43.9359 97.8074 43.9359C97.6687 43.9359 97.5514 43.8879 97.4554 43.7919C97.37 43.6959 97.3274 43.5839 97.3274 43.4559V41.5519L97.5994 41.4239C97.5994 41.7226 97.514 42.0266 97.3434 42.3359C97.1834 42.6452 96.9594 42.9332 96.6714 43.1999C96.3834 43.4666 96.042 43.6852 95.6474 43.8559C95.2634 44.0159 94.8474 44.0959 94.3994 44.0959C93.674 44.0959 93.0234 43.9092 92.4474 43.5359C91.882 43.1626 91.434 42.6506 91.1034 41.9999C90.7834 41.3492 90.6234 40.6186 90.6234 39.8079C90.6234 38.9759 90.7887 38.2452 91.1194 37.6159C91.45 36.9759 91.898 36.4746 92.4634 36.1119C93.0287 35.7492 93.6687 35.5679 94.3834 35.5679C94.842 35.5679 95.2687 35.6479 95.6634 35.8079C96.0687 35.9679 96.4207 36.1866 96.7194 36.4639C97.018 36.7412 97.2474 37.0612 97.4074 37.4239C97.578 37.7759 97.6634 38.1439 97.6634 38.5279L97.3274 38.2879V36.2559C97.3274 36.1172 97.37 35.9999 97.4554 35.9039C97.5514 35.8079 97.6687 35.7599 97.8074 35.7599ZM94.4794 43.1999C95.0447 43.1999 95.546 43.0559 95.9834 42.7679C96.4207 42.4692 96.762 42.0639 97.0074 41.5519C97.2634 41.0292 97.3914 40.4479 97.3914 39.8079C97.3914 39.1786 97.2634 38.6132 97.0074 38.1119C96.762 37.6106 96.4207 37.2106 95.9834 36.9119C95.546 36.6132 95.0447 36.4639 94.4794 36.4639C93.9247 36.4639 93.4234 36.6079 92.9754 36.8959C92.538 37.1839 92.1914 37.5786 91.9354 38.0799C91.69 38.5812 91.5674 39.1572 91.5674 39.8079C91.5674 40.4479 91.69 41.0292 91.9354 41.5519C92.1914 42.0639 92.538 42.4692 92.9754 42.7679C93.4127 43.0559 93.914 43.1999 94.4794 43.1999ZM100.438 35.7919H104.166C104.294 35.7919 104.401 35.8399 104.486 35.9359C104.572 36.0212 104.614 36.1279 104.614 36.2559C104.614 36.3732 104.572 36.4746 104.486 36.5599C104.401 36.6452 104.294 36.6879 104.166 36.6879H100.438C100.31 36.6879 100.198 36.6452 100.102 36.5599C100.017 36.4639 99.9745 36.3572 99.9745 36.2399C99.9745 36.1119 100.017 36.0052 100.102 35.9199C100.198 35.8346 100.31 35.7919 100.438 35.7919ZM102.086 33.5359C102.225 33.5359 102.337 33.5839 102.422 33.6799C102.518 33.7759 102.566 33.8879 102.566 34.0159V42.0479C102.566 42.3466 102.604 42.5706 102.678 42.7199C102.764 42.8692 102.87 42.9706 102.998 43.0239C103.126 43.0666 103.254 43.0879 103.382 43.0879C103.468 43.0879 103.542 43.0772 103.606 43.0559C103.681 43.0239 103.761 43.0079 103.846 43.0079C103.942 43.0079 104.022 43.0452 104.086 43.1199C104.161 43.1946 104.198 43.2906 104.198 43.4079C104.198 43.5572 104.113 43.6852 103.942 43.7919C103.772 43.8879 103.569 43.9359 103.334 43.9359C103.238 43.9359 103.094 43.9306 102.902 43.9199C102.71 43.8986 102.513 43.8399 102.31 43.7439C102.108 43.6372 101.937 43.4559 101.798 43.1999C101.67 42.9439 101.606 42.5759 101.606 42.0959V34.0159C101.606 33.8879 101.649 33.7759 101.734 33.6799C101.83 33.5839 101.948 33.5359 102.086 33.5359ZM107.476 43.4559C107.476 43.5839 107.428 43.6959 107.332 43.7919C107.236 43.8879 107.124 43.9359 106.996 43.9359C106.858 43.9359 106.74 43.8879 106.644 43.7919C106.559 43.6959 106.516 43.5839 106.516 43.4559V36.0959C106.516 35.9679 106.559 35.8559 106.644 35.7599C106.74 35.6639 106.858 35.6159 106.996 35.6159C107.135 35.6159 107.247 35.6639 107.332 35.7599C107.428 35.8559 107.476 35.9679 107.476 36.0959V43.4559ZM106.996 34.5439C106.772 34.5439 106.602 34.4959 106.484 34.3999C106.378 34.2932 106.324 34.1439 106.324 33.9519V33.7919C106.324 33.5999 106.383 33.4559 106.5 33.3599C106.628 33.2532 106.799 33.1999 107.012 33.1999C107.215 33.1999 107.37 33.2532 107.476 33.3599C107.594 33.4559 107.652 33.5999 107.652 33.7919V33.9519C107.652 34.1439 107.594 34.2932 107.476 34.3999C107.37 34.4959 107.21 34.5439 106.996 34.5439ZM109.938 35.5839C110.024 35.5839 110.109 35.6106 110.194 35.6639C110.28 35.7172 110.344 35.7972 110.386 35.9039L113.186 42.5599L112.978 42.6879L115.842 35.9039C115.928 35.6906 116.082 35.5892 116.306 35.5999C116.413 35.5999 116.514 35.6372 116.61 35.7119C116.706 35.7759 116.754 35.8719 116.754 35.9999C116.754 36.0639 116.744 36.1172 116.722 36.1599C116.712 36.1919 116.701 36.2292 116.69 36.2719L113.554 43.6319C113.469 43.8239 113.325 43.9252 113.122 43.9359C113.026 43.9466 112.93 43.9252 112.834 43.8719C112.749 43.8079 112.685 43.7279 112.642 43.6319L109.49 36.2719C109.48 36.2506 109.469 36.2186 109.458 36.1759C109.448 36.1332 109.442 36.0906 109.442 36.0479C109.442 35.9306 109.485 35.8239 109.57 35.7279C109.656 35.6319 109.778 35.5839 109.938 35.5839ZM122.377 44.0959C121.556 44.0959 120.83 43.9199 120.201 43.5679C119.572 43.2159 119.081 42.7252 118.729 42.0959C118.377 41.4666 118.201 40.7306 118.201 39.8879C118.201 38.9812 118.377 38.2079 118.729 37.5679C119.092 36.9279 119.556 36.4372 120.121 36.0959C120.697 35.7439 121.305 35.5679 121.945 35.5679C122.414 35.5679 122.868 35.6532 123.305 35.8239C123.753 35.9839 124.148 36.2292 124.489 36.5599C124.841 36.8799 125.118 37.2746 125.321 37.7439C125.534 38.2132 125.652 38.7572 125.673 39.3759C125.662 39.5039 125.609 39.6159 125.513 39.7119C125.417 39.7972 125.305 39.8399 125.177 39.8399H118.761L118.569 38.9759H124.873L124.665 39.1679V38.8479C124.622 38.3466 124.462 37.9199 124.185 37.5679C123.908 37.2159 123.572 36.9492 123.177 36.7679C122.782 36.5866 122.372 36.4959 121.945 36.4959C121.625 36.4959 121.294 36.5599 120.953 36.6879C120.622 36.8159 120.318 37.0186 120.041 37.2959C119.774 37.5626 119.556 37.9092 119.385 38.3359C119.214 38.7519 119.129 39.2479 119.129 39.8239C119.129 40.4532 119.257 41.0239 119.513 41.5359C119.769 42.0479 120.137 42.4532 120.617 42.7519C121.108 43.0506 121.689 43.1999 122.361 43.1999C122.734 43.1999 123.07 43.1466 123.369 43.0399C123.668 42.9332 123.929 42.7946 124.153 42.6239C124.377 42.4426 124.564 42.2559 124.713 42.0639C124.83 41.9679 124.948 41.9199 125.065 41.9199C125.172 41.9199 125.262 41.9626 125.337 42.0479C125.422 42.1332 125.465 42.2292 125.465 42.3359C125.465 42.4639 125.412 42.5759 125.305 42.6719C124.985 43.0559 124.569 43.3919 124.057 43.6799C123.545 43.9572 122.985 44.0959 122.377 44.0959Z" fill="#1D1D1D"/>
</svg>
